<?xml version="1.0" standalone="no"?>
<!DOCTYPE svg PUBLIC "-//W3C//DTD SVG 20010904//EN"
 "http://www.w3.org/TR/2001/REC-SVG-20010904/DTD/svg10.dtd">
<svg version="1.0" xmlns="http://www.w3.org/2000/svg"
 width="48.000000pt" height="45.000000pt" viewBox="0 0 48.000000 45.000000"
 preserveAspectRatio="xMidYMid meet">

<g transform="translate(0.000000,45.000000) scale(0.100000,-0.100000)"
fill="#000000" stroke="none">
<path d="M124 413 c-12 -2 -32 -15 -45 -29 -21 -22 -24 -37 -28 -115 -4 -114
4 -155 36 -185 24 -23 33 -24 145 -24 119 0 120 0 149 29 29 29 29 31 29 146
0 64 -5 125 -10 136 -20 36 -63 49 -162 48 -51 -1 -103 -4 -114 -6z m247 -39
c22 -24 24 -33 24 -140 0 -105 -2 -115 -23 -136 -20 -20 -35 -23 -118 -26
-109 -4 -131 -1 -162 28 -20 19 -22 30 -22 136 0 109 1 116 25 139 23 24 30
25 138 25 109 0 114 -1 138 -26z"/>
<path d="M201 361 c-61 -16 -83 -108 -42 -176 19 -34 20 -37 5 -60 -10 -15
-12 -25 -6 -25 6 0 16 9 22 20 16 29 90 28 108 -1 7 -12 16 -19 18 -16 3 3 0
14 -7 25 -12 19 -11 25 16 72 32 55 8 145 -43 156 -15 3 -31 7 -37 8 -5 2 -21
0 -34 -3z m74 -23 c35 -16 31 -35 -7 -41 -18 -4 -48 -9 -65 -13 -43 -8 -57 20
-24 48 27 21 59 23 96 6z m33 -89 c2 -27 -3 -43 -20 -62 -51 -57 -118 -31
-135 53 -5 30 -5 30 38 30 24 0 51 5 59 10 31 20 55 7 58 -31z"/>
</g>
</svg>
